<svg width="24" height="24" viewBox="0 0 24 24" fill="none" xmlns="http://www.w3.org/2000/svg">
<g id="iPhone">
<g id="icon">
<path d="M9.5 20C9.22386 20 9 20.2239 9 20.5C9 20.7761 9.22386 21 9.5 21H14.5C14.7761 21 15 20.7761 15 20.5C15 20.2239 14.7761 20 14.5 20H9.5Z" fill="#195DFE"/>
<path d="M16 0C17.6569 0 19 1.34315 19 3L19 21C19 22.6569 17.6569 24 16 24H8C6.34315 24 5 22.6569 5 21V3C5 1.34314 6.34315 0 8 0H16ZM17 3C17 2.44772 16.5523 2 16 2H15.6806C15.3768 2 15.0895 2.13809 14.8998 2.37531L14.7002 2.62469C14.5105 2.86191 14.2232 3 13.9194 3H10.0806C9.77684 3 9.48953 2.86191 9.29976 2.62469L9.10024 2.3753C8.91047 2.13809 8.62316 2 8.31938 2H8C7.44772 2 7 2.44772 7 3L7 21C7 21.5523 7.44772 22 8 22H16C16.5523 22 17 21.5523 17 21L17 3Z" fill="#195DFE"/>
</g>
</g>
</svg>
