<svg width="28" height="28" viewBox="0 0 28 28" fill="none" xmlns="http://www.w3.org/2000/svg">
<g id="Trash">
<path id="icon" d="M10.4997 1.1665C9.21101 1.1665 8.16634 2.21117 8.16634 3.49984V4.6665H5.83301H3.49967C2.85534 4.6665 2.33301 5.18884 2.33301 5.83317C2.33301 6.4775 2.85534 6.99984 3.49967 6.99984H4.66634V23.3332C4.66634 25.2662 6.23334 26.8332 8.16634 26.8332H19.833C21.766 26.8332 23.333 25.2662 23.333 23.3332V6.99984H24.4997C25.144 6.99984 25.6663 6.4775 25.6663 5.83317C25.6663 5.18884 25.144 4.6665 24.4997 4.6665H22.1663H19.833V3.49984C19.833 2.21117 18.7883 1.1665 17.4997 1.1665H10.4997ZM17.4997 4.6665H10.4997V3.49984H17.4997V4.6665ZM9.33301 6.99984H18.6663H20.9997V23.3332C20.9997 23.9775 20.4773 24.4998 19.833 24.4998H8.16634C7.52201 24.4998 6.99967 23.9775 6.99967 23.3332V6.99984H9.33301ZM12.833 12.8332C12.833 12.1888 12.3107 11.6665 11.6663 11.6665C11.022 11.6665 10.4997 12.1888 10.4997 12.8332V18.6665C10.4997 19.3108 11.022 19.8332 11.6663 19.8332C12.3107 19.8332 12.833 19.3108 12.833 18.6665V12.8332ZM16.333 11.6665C16.9773 11.6665 17.4997 12.1888 17.4997 12.8332V18.6665C17.4997 19.3108 16.9773 19.8332 16.333 19.8332C15.6887 19.8332 15.1663 19.3108 15.1663 18.6665V12.8332C15.1663 12.1888 15.6887 11.6665 16.333 11.6665Z" fill="#006BC8"/>
</g>
</svg>
