<svg width="16" height="20" viewBox="0 0 16 20" fill="none" xmlns="http://www.w3.org/2000/svg">
<g id="icon">
<path id="icon_2" d="M3.47452 3.61929C4.67475 2.36905 6.30261 1.66667 8 1.66667C9.69739 1.66667 11.3253 2.36905 12.5255 3.61929C13.7257 4.86953 14.4 6.56522 14.4 8.33333C14.4 10.915 12.7874 13.4202 11.0192 15.3644C10.1515 16.3185 9.28107 17.0996 8.62666 17.6424C8.38311 17.8444 8.17038 18.0127 8 18.1438C7.82962 18.0127 7.61689 17.8444 7.37334 17.6424C6.71893 17.0996 5.84849 16.3185 4.98076 15.3644C3.21259 13.4202 1.6 10.915 1.6 8.33333C1.6 6.56522 2.27428 4.86953 3.47452 3.61929ZM7.55581 19.8597C7.55604 19.8599 7.55624 19.86 8 19.1667L7.55624 19.86C7.82496 20.0467 8.17504 20.0467 8.44376 19.86L8 19.1667C8.44376 19.86 8.44396 19.8599 8.44419 19.8597L8.44479 19.8593L8.44648 19.8581L8.45181 19.8544L8.47015 19.8415C8.48572 19.8305 8.50794 19.8147 8.53635 19.7942C8.59318 19.7532 8.67483 19.6934 8.77777 19.616C8.98356 19.4612 9.27491 19.2352 9.62334 18.9462C10.3189 18.3692 11.2485 17.5357 12.1808 16.5106C14.0126 14.4965 16 11.585 16 8.33333C16 6.1232 15.1571 4.00358 13.6569 2.44078C12.1566 0.877973 10.1217 0 8 0C5.87827 0 3.84344 0.877973 2.34315 2.44078C0.842855 4.00358 0 6.1232 0 8.33333C0 11.585 1.98741 14.4965 3.81924 16.5106C4.75151 17.5357 5.68107 18.3692 6.37666 18.9462C6.72509 19.2352 7.01644 19.4612 7.22223 19.616C7.32517 19.6934 7.40682 19.7532 7.46365 19.7942C7.49206 19.8147 7.51428 19.8305 7.52985 19.8415L7.54819 19.8544L7.55352 19.8581L7.55521 19.8593L7.55581 19.8597ZM6.4 8.33333C6.4 7.41286 7.11634 6.66667 8 6.66667C8.88366 6.66667 9.6 7.41286 9.6 8.33333C9.6 9.25381 8.88366 10 8 10C7.11634 10 6.4 9.25381 6.4 8.33333ZM8 5C6.23269 5 4.8 6.49238 4.8 8.33333C4.8 10.1743 6.23269 11.6667 8 11.6667C9.76731 11.6667 11.2 10.1743 11.2 8.33333C11.2 6.49238 9.76731 5 8 5Z" fill="#195DFE"/>
</g>
</svg>
