<svg width="40" height="40" viewBox="0 0 40 40" fill="none" xmlns="http://www.w3.org/2000/svg">
<g id="ion:cart-sharp">
<path id="Vector" d="M13.75 35C15.1307 35 16.25 33.8807 16.25 32.5C16.25 31.1193 15.1307 30 13.75 30C12.3693 30 11.25 31.1193 11.25 32.5C11.25 33.8807 12.3693 35 13.75 35Z" fill="#006BC8"/>
<path id="Vector_2" d="M31.25 35C32.6307 35 33.75 33.8807 33.75 32.5C33.75 31.1193 32.6307 30 31.25 30C29.8693 30 28.75 31.1193 28.75 32.5C28.75 33.8807 29.8693 35 31.25 35Z" fill="#006BC8"/>
<path id="Vector_3" d="M13.1078 23.75H33.525L36.525 8.75H10.4602L9.79844 5H2.5V7.5H7.70156L11.4516 28.75H33.75V26.25H13.5484L13.1078 23.75Z" fill="#006BC8"/>
</g>
</svg>
