<svg width="25" height="24" viewBox="0 0 25 24" fill="none" xmlns="http://www.w3.org/2000/svg">
<g id="List">
<path id="icon" d="M4 3C3.17157 3 2.5 3.67157 2.5 4.5C2.5 5.32843 3.17157 6 4 6C4.82843 6 5.5 5.32843 5.5 4.5C5.5 3.67157 4.82843 3 4 3ZM4 10C3.17157 10 2.5 10.6716 2.5 11.5C2.5 12.3284 3.17157 13 4 13C4.82843 13 5.5 12.3284 5.5 11.5C5.5 10.6716 4.82843 10 4 10ZM2.5 18.5C2.5 17.6716 3.17157 17 4 17C4.82843 17 5.5 17.6716 5.5 18.5C5.5 19.3284 4.82843 20 4 20C3.17157 20 2.5 19.3284 2.5 18.5ZM9 3C8.17157 3 7.5 3.67157 7.5 4.5C7.5 5.32843 8.17157 6 9 6H21C21.8284 6 22.5 5.32843 22.5 4.5C22.5 3.67157 21.8284 3 21 3H9ZM7.5 11.5C7.5 10.6716 8.17157 10 9 10H21C21.8284 10 22.5 10.6716 22.5 11.5C22.5 12.3284 21.8284 13 21 13H9C8.17157 13 7.5 12.3284 7.5 11.5ZM9 17C8.17157 17 7.5 17.6716 7.5 18.5C7.5 19.3284 8.17157 20 9 20H21C21.8284 20 22.5 19.3284 22.5 18.5C22.5 17.6716 21.8284 17 21 17H9Z" fill="#006BC8"/>
</g>
</svg>
