<svg width="600.000000" height="274.000000" viewBox="0 0 600 274" fill="none"
	 xmlns="http://www.w3.org/2000/svg">
	<desc>
		Created with Pixso.
	</desc>
	<defs>
		<clipPath id="clip37_7958">
			<rect id="logo" width="600.000000" height="274.000000" fill="white" fill-opacity="0"/>
		</clipPath>
	</defs>
	<g clip-path="url(#clip37_7958)">
		<path id="path"
			  d="M113.57 136.97L113.57 221.25L99.4102 221.25L99.4102 141.46L104.02 141.68L64.8003 221.24L48.9502 221.24L9.72998 141.79L14.3403 141.56L14.3403 221.24L0.180176 221.24L0.180176 136.96L22.8804 136.96L60.6401 214.84L53.2202 214.84L90.8701 136.96L113.57 136.97Z"
			  fill="#000000" fill-opacity="1.000000" fill-rule="nonzero"/>
		<path id="path"
			  d="M182.791 136.97L223.25 221.25L207.4 221.25L170.65 142.58L176.38 142.58L139.63 221.25L123.78 221.25L164.24 136.97L182.791 136.97ZM143.68 201.92L143.68 189.67L202.57 189.67L202.57 201.92L143.68 201.92Z"
			  fill="#000000" fill-opacity="1.000000" fill-rule="nonzero"/>
		<path id="path"
			  d="M278.09 136.97C284.27 136.97 289.68 138.09 294.33 140.34C298.97 142.59 302.56 145.73 305.09 149.75C307.62 153.78 308.88 158.39 308.88 163.6C308.88 168.81 307.62 173.42 305.09 177.45C302.56 181.48 298.97 184.61 294.33 186.86C289.69 189.11 284.27 190.23 278.09 190.23L240.22 190.23L240.22 177.42L277.53 177.42C280.86 177.42 283.76 176.86 286.21 175.73C288.66 174.61 290.55 173.01 291.86 170.93C293.17 168.85 293.83 166.41 293.83 163.6C293.83 160.79 293.17 158.35 291.86 156.27C290.55 154.19 288.67 152.59 286.21 151.47C283.76 150.35 280.86 149.78 277.53 149.78L241.68 149.78L248.31 142.36L248.31 221.25L233.48 221.25L233.48 136.97L278.09 136.97Z"
			  fill="#000000" fill-opacity="1.000000" fill-rule="nonzero"/>
		<path id="path"
			  d="M321.01 221.25L321.01 136.97L335.84 136.97L335.84 208.78L331.34 205.97L387.75 136.97L403.82 136.97L334.26 221.25L321.01 221.25ZM361.13 178.89L371.58 168.66L405.07 221.25L388.1 221.25L361.13 178.89Z"
			  fill="#000000" fill-opacity="1.000000" fill-rule="nonzero"/>
		<path id="path"
			  d="M464.86 136.97L505.32 221.25L489.47 221.25L452.72 142.58L458.45 142.58L421.7 221.25L405.85 221.25L446.31 136.97L464.86 136.97ZM425.75 201.92L425.75 189.67L484.64 189.67L484.64 201.92L425.75 201.92Z"
			  fill="#000000" fill-opacity="1.000000" fill-rule="nonzero"/>
		<path id="path"
			  d="M599.82 187.88C599.03 194.77 596.62 200.86 592.57 206.14C588.52 211.42 583.17 215.52 576.5 218.45C569.83 221.37 562.32 222.83 553.97 222.83C544.61 222.83 536.34 221 529.16 217.35C521.98 213.7 516.42 208.57 512.47 201.95C508.52 195.34 506.54 187.73 506.54 179.11C506.54 170.49 508.52 162.88 512.47 156.27C516.42 149.66 521.98 144.53 529.16 140.87C536.34 137.21 544.6 135.39 553.97 135.39C562.32 135.39 569.83 136.85 576.5 139.77C583.17 142.69 588.52 146.79 592.57 152.08C596.62 157.36 599.03 163.45 599.82 170.34L584.87 170.34C584.05 165.88 582.27 162.02 579.53 158.76C576.8 155.5 573.24 153 568.85 151.26C564.47 149.52 559.47 148.65 553.85 148.65C547.29 148.65 541.59 149.89 536.74 152.36C531.89 154.83 528.15 158.36 525.53 162.95C522.91 167.54 521.6 172.92 521.6 179.1C521.6 185.28 522.91 190.67 525.53 195.25C528.15 199.84 531.89 203.37 536.74 205.84C541.59 208.31 547.29 209.55 553.85 209.55C559.51 209.55 564.52 208.69 568.88 206.97C573.24 205.25 576.79 202.76 579.53 199.5C582.26 196.24 584.04 192.36 584.87 187.87L599.82 187.88Z"
			  fill="#000000" fill-opacity="1.000000" fill-rule="nonzero"/>
		<path id="path"
			  d="M145.12 273.4L145.12 240.55L150.9 240.55L150.9 268.54L149.15 267.44L171.14 240.55L177.4 240.55L150.29 273.4L145.12 273.4ZM160.76 256.89L164.83 252.9L177.88 273.4L171.27 273.4L160.76 256.89Z"
			  fill="#000000" fill-opacity="1.000000" fill-rule="nonzero"/>
		<path id="path"
			  d="M196.68 274.01C192.99 274.01 189.71 273.3 186.86 271.87C184.01 270.45 181.79 268.44 180.21 265.86C178.63 263.27 177.84 260.31 177.84 256.97C177.84 253.63 178.63 250.66 180.21 248.08C181.79 245.5 184 243.49 186.86 242.07C189.71 240.65 192.99 239.93 196.68 239.93C200.37 239.93 203.65 240.64 206.5 242.07C209.35 243.49 211.57 245.5 213.15 248.08C214.73 250.66 215.52 253.63 215.52 256.97C215.52 260.31 214.73 263.28 213.15 265.86C211.57 268.44 209.36 270.45 206.5 271.87C203.64 273.3 200.37 274.01 196.68 274.01ZM196.68 268.84C199.31 268.84 201.6 268.36 203.55 267.39C205.5 266.43 207 265.05 208.06 263.26C209.12 261.47 209.65 259.37 209.65 256.96C209.65 254.55 209.12 252.45 208.06 250.66C207 248.87 205.5 247.5 203.55 246.53C201.6 245.57 199.31 245.08 196.68 245.08C194.05 245.08 191.76 245.56 189.81 246.53C187.86 247.49 186.36 248.87 185.3 250.66C184.24 252.45 183.71 254.55 183.71 256.96C183.71 259.37 184.24 261.47 185.3 263.26C186.36 265.05 187.86 266.42 189.81 267.39C191.76 268.36 194.05 268.84 196.68 268.84Z"
			  fill="#000000" fill-opacity="1.000000" fill-rule="nonzero"/>
		<path id="path"
			  d="M265.31 240.55L265.31 273.4L259.79 273.4L259.79 242.3L261.59 242.39L246.3 273.4L240.12 273.4L224.83 242.43L226.63 242.34L226.63 273.39L221.11 273.39L221.11 240.54L229.96 240.54L244.68 270.89L241.79 270.89L256.46 240.54L265.31 240.55Z"
			  fill="#000000" fill-opacity="1.000000" fill-rule="nonzero"/>
		<path id="path"
			  d="M304.99 240.55L304.99 273.4L299.25 273.4L299.25 243.05L301.88 245.68L275.82 245.68L278.45 243.05L278.45 273.4L272.67 273.4L272.67 240.55L304.99 240.55Z"
			  fill="#000000" fill-opacity="1.000000" fill-rule="nonzero"/>
		<path id="path"
			  d="M317.87 240.55L347.57 240.55L347.57 273.4L341.79 273.4L341.79 243.05L344.42 245.68L321.12 245.68L323.57 243.71C324.04 248.38 324.27 252.65 324.27 256.5C324.27 260.62 323.92 263.95 323.22 266.51C322.52 269.06 321.43 270.95 319.96 272.16C318.49 273.37 316.57 273.98 314.2 273.98C313.28 273.98 312.39 273.88 311.52 273.68C310.65 273.48 309.87 273.2 309.17 272.84L309.17 267.93C310.38 268.43 311.54 268.67 312.63 268.67C314.08 268.67 315.25 268.22 316.16 267.33C317.06 266.44 317.73 265.04 318.16 263.14C318.59 261.23 318.81 258.74 318.81 255.66C318.79 251.54 318.48 246.51 317.87 240.55Z"
			  fill="#000000" fill-opacity="1.000000" fill-rule="nonzero"/>
		<path id="path"
			  d="M362.02 256.97L359.7 271.64L356.94 268.4L382.43 268.4L382.43 273.39L353.78 273.39L356.41 256.96L353.78 240.54L382.21 240.54L382.21 245.53L356.94 245.53L359.7 242.29L362.02 256.97ZM381.16 254.56L381.16 259.38L358.21 259.38L358.21 254.56L381.16 254.56Z"
			  fill="#000000" fill-opacity="1.000000" fill-rule="nonzero"/>
		<path id="path"
			  d="M388.48 273.4L388.48 240.55L394.26 240.55L394.26 268.54L392.51 267.44L414.5 240.55L420.76 240.55L393.65 273.4L388.48 273.4ZM404.11 256.89L408.18 252.9L421.23 273.4L414.62 273.4L404.11 256.89Z"
			  fill="#000000" fill-opacity="1.000000" fill-rule="nonzero"/>
		<path id="path"
			  d="M421.94 240.55L454.88 240.55L454.88 245.63L421.94 245.63L421.94 240.55ZM435.52 243.22L441.3 243.22L441.3 273.4L435.52 273.4L435.52 243.22Z"
			  fill="#000000" fill-opacity="1.000000" fill-rule="nonzero"/>
		<rect id="rect" x="323.020020" y="-0.009766" width="56.359985" height="13.269989" fill="#000000"
			  fill-opacity="1.000000"/>
		<rect id="rect" x="323.350098" y="71.000000" width="119.589966" height="13.269989" fill="#000000"
			  fill-opacity="1.000000"/>
		<path id="polygon"
			  d="M362.44 24.1001L356.22 27.3901L356.22 31.4502L360.2 33.5601L364.69 33.5601L368.67 31.4502L368.67 27.3901L362.44 24.1001Z"
			  fill="#2A6AC3" fill-opacity="1.000000" fill-rule="nonzero"/>
		<path id="polygon"
			  d="M362.37 26.6802L356.22 29.1802L356.22 31.9102L360.2 33.5601L364.69 33.5601L368.67 31.9102L368.67 29.1802L362.37 26.6802Z"
			  fill="#2A6AC3" fill-opacity="1.000000" fill-rule="nonzero"/>
		<path id="path"
			  d="M362.44 24.1001L368.67 27.3901L368.67 31.4502L364.69 33.5601L360.2 33.5601L356.22 31.4502L356.22 27.3901L362.44 24.1001ZM362.44 21.8301L361.5 22.3203L355.27 25.6099L354.21 26.1699L354.21 27.3701L354.21 31.4302L354.21 32.6299L355.27 33.1899L359.25 35.3003L359.69 35.5303L360.19 35.5303L364.68 35.5303L365.18 35.5303L365.62 35.3003L369.6 33.1899L370.66 32.6299L370.66 31.4302L370.66 27.3701L370.66 26.1699L369.6 25.6099L363.37 22.3203L362.44 21.8301Z"
			  fill="#000000" fill-opacity="1.000000" fill-rule="nonzero"/>
		<path id="path"
			  d="M366.02 34.5L358.9 34.5L358.9 36.48C358.9 37.3301 359.59 38.02 360.44 38.02L364.48 38.02C365.33 38.02 366.02 37.3301 366.02 36.48L366.02 34.5Z"
			  fill="#000000" fill-opacity="1.000000" fill-rule="nonzero"/>
		<path id="path"
			  d="M365.18 42.6504C365.12 42.4004 364.779 42.4004 364.7 42.6401C364.47 43.3804 363.859 43.8604 363.319 43.9902C362.6 44.1602 361.85 43.9805 361.41 43.4604C360.97 42.9604 360.85 42.2202 361.129 41.6504C361.31 41.2305 361.649 40.9805 362.029 40.8403C363.02 40.4604 363.7 39.54 363.7 38.4805L363.7 36.2402L361.529 36.2402L361.529 37.9204C361.529 38.3301 361.31 38.7104 360.95 38.8901C360.14 39.29 359.47 39.9902 359.14 40.8301C358.58 42.2002 358.939 43.8901 360.02 44.8604C361.06 45.8604 362.689 46.0903 363.95 45.4902C365.029 44.9604 365.43 43.6802 365.18 42.6504Z"
			  fill="#000000" fill-opacity="1.000000" fill-rule="nonzero"/>
		<line id="line" x1="367.109863" y1="24.319824" x2="367.109863" y2="12.379883" stroke="#000000"
			  stroke-opacity="1.000000" stroke-width="2.000000"/>
		<line id="line" x1="357.700195" y1="24.319824" x2="357.700195" y2="12.379883" stroke="#000000"
			  stroke-opacity="1.000000" stroke-width="2.000000"/>
		<path id="path"
			  d="M367.47 54.8999L367.47 59.1699L380.53 52.1699C383.4 45.9097 389.729 41.5498 397.06 41.5498C404.39 41.5498 410.71 45.9097 413.59 52.1699L426.65 59.1699L426.65 54.8999L421.36 53.4697C420.77 51.1597 419.85 48.98 418.66 46.98L421.39 42.2197L414.56 35.3896L409.8 38.1201C407.8 36.9297 405.62 36.0098 403.31 35.4199L401.88 30.1299L392.22 30.1299L390.79 35.4199C388.48 36.0098 386.3 36.9297 384.3 38.1201L379.54 35.3896L372.71 42.2197L375.44 46.98C374.25 48.98 373.33 51.1597 372.74 53.4697L367.47 54.8999Z"
			  fill="#000000" fill-opacity="1.000000" fill-rule="nonzero"/>
		<path id="polygon" d="M368.63 71L397.06 55.7798L425.49 71L442.93 71L397.06 46.4399L351.19 71L368.63 71Z"
			  fill="#2A6AC3" fill-opacity="1.000000" fill-rule="nonzero"/>
		<rect id="rect" x="392.549805" y="62.250000" width="3.309998" height="3.309998" fill="#2A6AC3"
			  fill-opacity="1.000000"/>
		<rect id="rect" x="398.259766" y="62.250000" width="3.309998" height="3.309998" fill="#2A6AC3"
			  fill-opacity="1.000000"/>
		<rect id="rect" x="392.549805" y="67.689941" width="3.309998" height="3.309998" fill="#2A6AC3"
			  fill-opacity="1.000000"/>
		<rect id="rect" x="398.259766" y="67.689941" width="3.309998" height="3.309998" fill="#2A6AC3"
			  fill-opacity="1.000000"/>
		<path id="path"
			  d="M256.2 84.27L256.2 -0.00976562L271.03 -0.00976562L271.03 71.8003L266.53 68.9902L322.94 -0.00976562L339.01 -0.00976562L269.45 84.27L256.2 84.27ZM296.32 41.9102L306.77 31.6802L340.26 84.27L323.29 84.27L296.32 41.9102Z"
			  fill="#000000" fill-opacity="1.000000" fill-rule="nonzero"/>
		<path id="path"
			  d="M270.46 -0.00976562L270.46 84.27L256.3 84.27L256.3 4.47998L260.91 4.7002L221.69 84.2598L205.84 84.2598L166.62 4.81006L171.23 4.58008L171.23 84.2598L157.07 84.2598L157.07 -0.0200195L179.77 -0.0200195L217.53 77.8599L210.11 77.8599L247.76 -0.0200195L270.46 -0.00976562Z"
			  fill="#000000" fill-opacity="1.000000" fill-rule="nonzero"/>
	</g>
</svg>
